<?xml version="1.0" standalone="no"?>
<!DOCTYPE svg PUBLIC "-//W3C//DTD SVG 20010904//EN"
 "http://www.w3.org/TR/2001/REC-SVG-20010904/DTD/svg10.dtd">
<svg version="1.0" xmlns="http://www.w3.org/2000/svg"
 width="1472.000000pt" height="832.000000pt" viewBox="0 0 1472.000000 832.000000"
 preserveAspectRatio="xMidYMid meet">

<g transform="translate(0.000000,832.000000) scale(0.100000,-0.100000)"
fill="#000000" stroke="none">
<path d="M7204 6891 c-86 -25 -164 -64 -217 -111 -40 -35 -56 -42 -129 -55
-229 -40 -525 -150 -733 -273 -305 -179 -555 -395 -776 -667 -112 -138 -234
-328 -225 -351 12 -31 36 -9 96 84 316 486 792 877 1290 1057 65 23 331 95
352 95 5 0 -3 -17 -17 -38 -39 -60 -74 -159 -87 -250 -7 -46 -17 -85 -23 -87
-66 -17 -277 -101 -380 -151 -341 -165 -573 -371 -802 -714 -62 -92 -175 -310
-234 -448 l-44 -102 -920 0 -920 1 0 -23 0 -23 1285 -5 1285 -5 41 -22 c75
-40 126 -53 218 -53 98 0 185 19 260 57 l50 25 368 -1 c329 -2 367 0 362 13
-4 10 -1 16 7 16 8 0 0 7 -16 15 -30 15 -48 36 -144 165 -26 36 -96 130 -156
209 -116 157 -114 152 -146 260 -54 178 -195 314 -374 360 -33 9 -62 20 -64
26 -6 16 123 81 247 125 62 22 120 40 127 40 8 0 26 -22 39 -48 145 -285 518
-393 838 -242 65 30 165 125 223 209 26 39 48 71 50 71 3 0 144 -52 216 -79
30 -12 64 -27 74 -35 17 -12 14 -15 -36 -31 -132 -43 -225 -105 -294 -196 -57
-76 -90 -146 -113 -241 -12 -51 -25 -79 -47 -101 -93 -94 -215 -268 -285 -404
-17 -35 -35 -63 -40 -63 -5 0 -11 75 -13 168 l-3 167 -2 -177 c-2 -157 -4
-178 -19 -187 -16 -9 -15 -10 6 -11 19 0 21 -3 12 -14 -10 -12 42 -14 365 -16
293 -1 382 -4 403 -14 79 -41 255 -47 366 -14 70 22 79 22 1415 27 l1345 6 3
22 3 23 -727 2 -728 3 -48 130 c-55 149 -61 161 -135 310 -264 525 -717 969
-1248 1221 -144 69 -451 172 -537 181 -53 5 -70 12 -108 44 -66 54 -166 106
-240 123 -87 21 -238 19 -316 -3z m281 -107 c67 -17 163 -68 213 -112 48 -44
39 -47 -15 -6 -200 153 -459 153 -622 1 -49 -47 -108 -140 -127 -205 -24 -80
-24 -221 0 -292 30 -88 55 -130 114 -192 92 -97 194 -141 327 -141 173 0 298
64 391 201 24 37 44 62 44 56 0 -23 -79 -131 -124 -171 -135 -119 -338 -147
-501 -70 -157 75 -262 217 -295 399 -22 118 29 287 115 386 64 73 181 142 265
155 60 10 160 6 215 -9z m11 -68 c119 -32 222 -116 272 -224 25 -53 27 -67 27
-187 0 -120 -2 -134 -27 -187 -144 -308 -601 -318 -754 -16 -103 204 -42 451
141 571 80 53 233 72 341 43z m550 -91 c325 -94 681 -293 945 -528 96 -85 258
-255 301 -314 13 -18 62 -86 110 -152 99 -136 172 -258 247 -415 50 -106 121
-294 121 -322 0 -11 -26 -14 -137 -13 -76 0 -160 4 -186 7 l-49 7 -34 89
c-107 277 -327 619 -524 816 -173 174 -345 286 -627 409 -50 22 -123 50 -161
61 l-70 21 -6 72 c-10 101 -32 183 -68 246 l-30 54 40 -6 c21 -4 79 -18 128
-32z m-1290 -412 c3 -16 10 -41 15 -57 5 -17 6 -33 2 -37 -5 -4 -46 -21 -93
-37 -165 -58 -417 -179 -440 -212 -3 -4 -30 -19 -61 -34 -104 -48 -220 -149
-326 -281 -169 -211 -148 -179 -270 -415 -27 -52 -62 -129 -78 -170 -15 -41
-30 -77 -32 -79 -2 -3 -33 -5 -69 -6 l-65 -2 6 26 c12 50 194 407 250 490 258
385 541 613 958 775 199 77 194 76 203 39z m1389 -35 c357 -141 605 -318 794
-568 138 -182 229 -329 311 -505 89 -190 99 -213 93 -219 -9 -9 -116 -7 -129
2 -5 4 -21 34 -34 67 -44 114 -184 384 -209 405 -3 3 -35 54 -71 115 -51 85
-86 130 -162 205 -86 84 -114 105 -250 180 -239 131 -271 147 -406 196 -70 25
-128 47 -130 49 -2 2 2 30 9 64 l13 61 36 -6 c19 -4 80 -24 135 -46z m111
-404 c-185 -45 -339 -217 -365 -410 l-10 -69 3 80 c3 107 44 195 130 281 77
77 189 132 266 132 29 0 24 -2 -24 -14z m266 -57 c69 -31 129 -91 165 -165 24
-48 29 -72 31 -154 7 -184 -58 -308 -208 -399 -112 -69 -297 -63 -406 12 -57
39 -92 82 -128 159 -27 58 -31 75 -31 160 0 87 3 101 32 160 103 209 355 314
545 227z m-2090 -32 c151 -77 278 -274 278 -434 0 -92 -32 -165 -100 -231 -88
-85 -136 -105 -246 -105 -83 1 -98 4 -159 34 -80 40 -179 134 -212 202 -62
126 -70 296 -19 382 32 56 96 121 140 144 100 52 225 56 318 8z m2355 -401
c-7 -114 -39 -184 -127 -268 -157 -152 -347 -186 -534 -96 -62 30 -136 90
-136 112 0 7 17 -4 38 -24 38 -37 127 -86 196 -108 65 -21 210 -9 276 23 117
56 213 154 254 258 25 66 28 82 23 154 -4 60 -3 74 5 55 5 -14 8 -61 5 -106z
m-1003 -58 c14 -73 87 -197 157 -268 l68 -68 -123 0 c-67 0 -178 -3 -246 -7
-119 -6 -123 -6 -118 14 3 10 47 81 99 157 52 76 105 155 119 176 14 21 28 36
31 34 4 -2 10 -19 13 -38z m1280 -151 c102 -206 100 -194 29 -191 -32 2 -129
4 -216 5 l-159 1 66 71 c65 70 112 151 151 263 l18 49 19 -24 c10 -13 52 -91
92 -174z m-3324 120 c18 -71 84 -205 127 -254 19 -23 33 -44 31 -47 -3 -2 -87
-3 -186 -2 l-181 3 45 100 c79 177 132 272 144 258 4 -4 13 -30 20 -58z m1241
-82 c56 -82 116 -165 132 -185 l29 -38 -231 0 c-127 0 -231 3 -231 8 0 4 17
24 38 44 65 64 152 235 152 298 0 11 2 20 4 20 2 0 50 -66 107 -147z"/>
<path d="M7250 6306 l0 -305 46 -7 c66 -10 164 3 194 24 49 36 70 80 70 144 0
62 -14 101 -49 132 l-21 19 25 29 c29 34 40 83 31 144 -7 53 -19 74 -60 102
-28 19 -46 22 -134 22 l-102 0 0 -304z m181 193 c18 -18 20 -30 17 -70 -6 -58
-21 -79 -58 -79 l-28 0 -4 81 c-2 44 -1 83 1 85 12 11 54 1 72 -17z m-23 -250
c76 -26 61 -169 -18 -169 -35 0 -40 14 -40 99 0 86 3 89 58 70z"/>
<path d="M8226 6354 c-8 -20 -8 -20 29 -27 27 -6 28 -5 8 5 -36 18 -27 26 17
15 21 -6 41 -18 43 -26 4 -13 5 -13 6 1 1 19 -46 48 -77 48 -11 0 -23 -7 -26
-16z"/>
<path d="M8526 6214 c-4 -9 -5 -18 -4 -19 41 -27 80 -45 88 -40 20 12 9 32
-29 53 -46 26 -47 26 -55 6z"/>
<path d="M8705 6090 c-9 -15 5 -32 22 -26 8 3 24 -1 36 -10 l22 -16 -25 8
c-22 6 -23 5 -11 -10 17 -20 28 -20 47 -1 10 10 11 15 4 15 -7 0 -25 11 -42
25 -32 27 -43 30 -53 15z m25 -10 c0 -5 -4 -10 -10 -10 -5 0 -10 5 -10 10 0 6
5 10 10 10 6 0 10 -4 10 -10z"/>
<path d="M8963 5903 c0 -21 25 -53 42 -53 26 0 23 28 -5 49 -35 25 -37 26 -37
4z m42 -31 c-3 -3 -11 0 -18 7 -9 10 -8 11 6 5 10 -3 15 -9 12 -12z"/>
<path d="M9141 5659 c-1 -9 6 -22 14 -29 8 -7 15 -17 15 -22 0 -13 26 -38 33
-31 3 3 1 11 -6 18 -24 26 -45 53 -50 66 -4 11 -6 10 -6 -2z"/>
<path d="M9210 5560 c-13 -8 -13 -10 2 -10 9 0 20 5 23 10 8 13 -5 13 -25 0z"/>
<path d="M9330 5420 c6 -11 16 -20 22 -20 6 0 3 9 -7 20 -10 11 -20 20 -22 20
-2 0 1 -9 7 -20z"/>
<path d="M9300 5405 c0 -8 4 -15 10 -15 5 0 7 7 4 15 -4 8 -8 15 -10 15 -2 0
-4 -7 -4 -15z"/>
<path d="M9330 5373 c-13 -15 -12 -16 4 -10 10 4 22 7 27 7 5 0 9 5 9 10 0 15
-23 11 -40 -7z"/>
<path d="M9455 5163 c4 -10 10 -28 12 -40 3 -13 9 -20 14 -17 5 3 6 -2 3 -10
-3 -9 -1 -16 5 -16 7 0 14 7 17 15 8 19 -15 77 -27 69 -5 -3 -9 0 -9 5 0 6 -5
11 -11 11 -7 0 -8 -7 -4 -17z m32 -35 c-3 -8 -6 -5 -6 6 -1 11 2 17 5 13 3 -3
4 -12 1 -19z"/>
<path d="M8345 5568 c-55 -36 -205 -211 -236 -276 -34 -70 -13 -142 54 -182
66 -40 123 -22 218 69 59 57 61 78 9 103 l-35 18 -50 -55 c-53 -57 -82 -68
-105 -40 -10 12 -10 21 -1 41 15 34 197 251 217 258 27 10 51 7 65 -10 11 -13
10 -24 -4 -63 -16 -43 -16 -47 0 -58 66 -50 141 64 97 146 -46 85 -143 106
-229 49z"/>
<path d="M6155 5549 c-61 -32 -105 -68 -105 -86 0 -27 182 -267 301 -397 l46
-50 41 18 c54 24 117 87 132 130 29 90 -58 206 -155 206 -21 0 -25 4 -25 31 0
44 -26 93 -71 134 -32 28 -47 35 -82 35 -24 0 -60 -9 -82 -21z m119 -100 c38
-45 43 -76 17 -102 l-23 -22 -39 45 c-49 57 -57 79 -33 97 28 20 50 16 78 -18z
m144 -179 c41 -25 64 -74 50 -106 -12 -25 -38 -39 -48 -27 -32 40 -90 121 -90
127 0 6 35 24 50 25 3 1 20 -8 38 -19z"/>
<path d="M6468 6381 c-61 -26 -48 -58 15 -40 43 12 49 19 34 40 -11 14 -16 14
-49 0z m42 -9 c0 -4 -13 -13 -30 -19 -35 -13 -41 -1 -7 15 27 13 37 14 37 4z"/>
<path d="M6265 6282 c-16 -9 -32 -18 -33 -19 -2 -1 0 -8 5 -17 7 -13 14 -12
56 6 38 17 45 23 36 34 -15 18 -27 17 -64 -4z m50 -2 c-3 -5 -12 -10 -18 -10
-7 0 -6 4 3 10 19 12 23 12 15 0z m-40 -20 c-3 -5 -11 -10 -16 -10 -6 0 -7 5
-4 10 3 6 11 10 16 10 6 0 7 -4 4 -10z"/>
<path d="M5995 6150 c-4 -13 0 -31 9 -45 16 -24 17 -24 35 -7 18 17 11 42 -11
42 -6 0 -5 -7 2 -15 10 -12 10 -15 -3 -15 -19 0 -32 31 -16 40 7 5 8 10 1 14
-6 3 -14 -3 -17 -14z"/>
<path d="M5782 5974 c-18 -14 -32 -30 -32 -35 0 -5 8 -1 19 10 10 10 27 23 37
29 10 6 16 13 14 16 -3 3 -20 -6 -38 -20z"/>
<path d="M5789 5944 l-24 -27 28 18 c15 9 27 21 27 26 0 14 -5 11 -31 -17z"/>
<path d="M5466 5615 c-19 -26 -33 -51 -30 -56 10 -17 34 -9 51 19 9 15 23 33
32 40 13 11 13 14 -1 28 -14 15 -19 12 -52 -31z m27 1 c-10 -13 -20 -22 -22
-20 -4 4 29 44 36 44 2 0 -4 -11 -14 -24z"/>
<path d="M7320 5630 c0 -5 7 -7 15 -4 8 4 15 8 15 10 0 2 -7 4 -15 4 -8 0 -15
-4 -15 -10z"/>
<path d="M7385 5475 c0 -73 3 -128 7 -122 10 16 10 244 1 250 -5 3 -8 -55 -8
-128z"/>
<path d="M7318 5480 c2 -58 6 -107 8 -109 7 -8 3 135 -5 174 -5 25 -7 2 -3
-65z"/>
<path d="M7530 5444 c-25 -14 -53 -33 -64 -42 -41 -37 -90 -138 -63 -129 7 2
14 12 16 23 3 19 34 54 47 54 4 0 -2 -10 -13 -22 -21 -25 -37 -58 -26 -58 4 0
20 15 35 33 16 17 26 25 22 17 -15 -32 -48 -60 -71 -60 -13 0 -23 -5 -23 -11
0 -20 53 1 88 34 31 29 122 165 122 180 0 13 -26 6 -70 -19z m-6 -70 c3 -8 2
-12 -4 -9 -6 3 -10 10 -10 16 0 14 7 11 14 -7z"/>
<path d="M5332 5380 c-15 -25 -4 -26 15 -2 11 13 13 13 10 2 -2 -8 -13 -19
-24 -24 -31 -14 -48 -46 -31 -57 7 -5 16 -9 19 -9 5 0 33 50 51 93 11 25 -24
23 -40 -3z"/>
<path d="M7080 5367 c0 -2 11 -24 25 -48 13 -24 33 -63 44 -87 13 -28 25 -41
32 -36 8 4 9 3 5 -4 -9 -15 48 -87 90 -112 37 -24 51 -26 34 -5 -7 8 -18 15
-25 15 -6 0 -12 13 -13 30 0 17 3 28 7 26 4 -3 8 14 8 36 2 33 -5 49 -32 82
-30 37 -103 84 -138 90 -7 1 -18 5 -24 9 -7 5 -13 6 -13 4z m75 -47 c3 -5 2
-10 -4 -10 -5 0 -13 5 -16 10 -3 6 -2 10 4 10 5 0 13 -4 16 -10z m25 -81 c0
-6 -4 -7 -10 -4 -5 3 -10 11 -10 16 0 6 5 7 10 4 6 -3 10 -11 10 -16z m65 -39
c3 -5 1 -10 -4 -10 -6 0 -11 5 -11 10 0 6 2 10 4 10 3 0 8 -4 11 -10z m28 -25
c-3 -9 -8 -14 -10 -11 -3 3 -2 9 2 15 9 16 15 13 8 -4z m-38 -15 c3 -5 2 -10
-4 -10 -5 0 -13 5 -16 10 -3 6 -2 10 4 10 5 0 13 -4 16 -10z m31 -47 c-7 -7
-26 7 -26 19 0 6 6 6 15 -2 9 -7 13 -15 11 -17z"/>
<path d="M7371 5294 c0 -11 3 -14 6 -6 3 7 2 16 -1 19 -3 4 -6 -2 -5 -13z"/>
<path d="M7310 5250 c0 -16 2 -30 4 -30 2 0 6 14 8 30 3 17 1 30 -4 30 -4 0
-8 -13 -8 -30z"/>
<path d="M7335 5250 c3 -5 8 -10 11 -10 2 0 4 5 4 10 0 6 -5 10 -11 10 -5 0
-7 -4 -4 -10z"/>
<path d="M5216 5154 c-8 -20 1 -34 20 -34 8 0 14 10 14 25 0 28 -24 34 -34 9z"/>
<path d="M7310 5130 c0 -5 5 -10 10 -10 6 0 10 5 10 10 0 6 -4 10 -10 10 -5 0
-10 -4 -10 -10z"/>
<path d="M7312 5020 c0 -14 2 -19 5 -12 2 6 2 18 0 25 -3 6 -5 1 -5 -13z"/>
<path d="M7371 4894 c0 -11 3 -14 6 -6 3 7 2 16 -1 19 -3 4 -6 -2 -5 -13z"/>
<path d="M7380 4810 c0 -5 5 -10 11 -10 5 0 7 5 4 10 -3 6 -8 10 -11 10 -2 0
-4 -4 -4 -10z"/>
<path d="M7318 4763 c7 -3 16 -2 19 1 4 3 -2 6 -13 5 -11 0 -14 -3 -6 -6z"/>
<path d="M7358 4763 c7 -3 16 -2 19 1 4 3 -2 6 -13 5 -11 0 -14 -3 -6 -6z"/>
<path d="M3596 4482 c-63 -22 -102 -70 -118 -143 -23 -109 16 -176 169 -291
75 -57 98 -89 98 -139 0 -44 -24 -74 -65 -82 -37 -8 -122 17 -145 43 -10 11
-23 20 -30 20 -17 0 -48 -72 -43 -101 7 -52 160 -100 255 -79 106 24 163 95
163 203 0 102 -34 154 -168 253 -110 82 -137 140 -87 189 32 33 85 33 153 -2
51 -26 53 -26 67 -7 8 10 19 34 26 52 15 44 2 57 -78 82 -79 24 -132 25 -197
2z"/>
<path d="M4906 4488 c-75 -20 -136 -107 -136 -193 0 -86 36 -140 160 -237 41
-33 82 -71 92 -86 25 -38 23 -85 -6 -119 -35 -41 -106 -39 -177 6 -28 17 -53
30 -54 29 -14 -16 -35 -72 -35 -92 0 -32 47 -61 134 -83 118 -29 210 4 263 95
22 37 27 58 27 112 0 86 -32 143 -117 208 -110 83 -147 124 -154 164 -4 30 -1
41 20 62 34 34 82 34 147 1 27 -14 54 -25 60 -25 15 0 51 85 44 103 -11 30
-120 68 -189 66 -22 -1 -57 -6 -79 -11z"/>
<path d="M4097 4484 c-4 -4 -7 -143 -7 -309 l0 -301 28 -55 c32 -64 72 -93
148 -109 117 -24 233 21 275 107 24 47 24 52 24 358 l0 310 -54 3 c-30 2 -58
-1 -64 -7 -5 -5 -10 -126 -11 -298 -2 -315 -4 -325 -59 -348 -46 -18 -93 -8
-122 27 -24 28 -25 36 -26 171 -1 78 -3 212 -5 297 l-3 155 -59 3 c-32 2 -61
0 -65 -4z"/>
<path d="M5317 4483 c-4 -3 -7 -30 -7 -60 l0 -53 90 0 90 0 0 -320 c0 -364 -6
-342 88 -333 l52 6 0 323 0 324 89 0 89 0 7 50 c4 27 4 54 0 60 -7 11 -487 15
-498 3z"/>
<path d="M6085 4458 c-29 -72 -207 -718 -201 -733 4 -13 18 -15 63 -13 63 3
55 -6 88 111 l16 57 109 0 108 0 23 -76 c12 -41 29 -78 38 -83 21 -10 121 -2
121 10 0 13 -218 738 -226 750 -3 5 -32 9 -65 9 -58 0 -60 -1 -74 -32z m114
-306 c23 -79 41 -148 41 -153 0 -11 -130 -12 -147 -1 -10 6 -4 43 25 154 20
81 37 146 38 145 1 -1 20 -67 43 -145z"/>
<path d="M6624 4478 c-6 -8 -8 -156 -6 -385 l4 -371 57 -4 c31 -2 59 -1 64 2
4 3 6 177 5 386 l-3 379 -56 3 c-37 2 -59 -1 -65 -10z"/>
<path d="M6994 4478 c-5 -7 -7 -181 -4 -388 l5 -375 63 -3 62 -3 1 238 0 238
120 -237 119 -238 55 0 55 0 -2 388 -3 387 -60 0 -60 0 -5 -230 -5 -230 -31
65 c-18 36 -64 135 -104 220 -40 85 -77 161 -82 168 -6 7 -33 12 -63 12 -31 0
-56 -5 -61 -12z"/>
<path d="M7862 4481 c-7 -4 -27 -52 -43 -107 -65 -212 -179 -618 -179 -636 0
-21 31 -31 85 -26 42 3 39 -2 70 111 l16 57 108 0 107 0 18 -68 c10 -38 21
-73 24 -79 8 -13 37 -17 96 -15 38 2 38 2 32 35 -5 25 -185 674 -201 725 -5
14 -112 17 -133 3z m93 -317 c20 -71 38 -137 41 -146 5 -16 -3 -18 -76 -18
-80 0 -82 1 -77 23 12 56 72 275 74 273 2 -2 19 -61 38 -132z"/>
<path d="M8373 4483 c-10 -4 -13 -90 -13 -383 l0 -379 46 -7 c25 -3 88 -4 139
-2 114 6 170 30 211 90 27 38 29 48 29 133 0 101 -12 131 -65 164 l-30 18 26
24 c34 32 43 49 54 111 21 109 -35 202 -136 227 -42 11 -237 14 -261 4z m221
-117 c43 -18 60 -63 46 -121 -12 -54 -40 -75 -101 -75 l-49 0 0 98 c0 54 3
102 7 105 11 12 62 8 97 -7z m21 -322 c41 -27 57 -106 33 -159 -16 -35 -57
-55 -113 -55 l-45 0 0 115 0 115 50 0 c29 0 61 -7 75 -16z"/>
<path d="M9015 4483 c-6 -5 -9 -142 -7 -385 l4 -378 63 0 c57 0 63 2 66 23 2
12 2 184 -1 382 l-5 360 -55 3 c-30 1 -59 -1 -65 -5z"/>
<path d="M9433 4482 l-53 -3 0 -378 0 -379 28 -5 c15 -3 91 -3 168 0 l142 6 5
45 c8 70 6 72 -92 74 -47 0 -93 1 -101 2 -13 1 -15 45 -18 317 -2 241 -5 318
-15 320 -6 2 -36 3 -64 1z"/>
<path d="M9885 4477 c-3 -6 -4 -181 -3 -387 l3 -375 58 -3 c40 -2 59 1 62 10
2 7 5 181 7 385 2 303 1 374 -10 378 -28 10 -113 5 -117 -8z"/>
<path d="M10187 4484 c-4 -4 -7 -31 -7 -61 l0 -53 90 0 90 0 0 -324 c0 -360
-5 -336 70 -336 75 0 70 -24 70 336 l0 324 95 0 96 0 -3 58 -3 57 -246 3
c-135 1 -248 -1 -252 -4z"/>
<path d="M10756 4481 c-3 -5 38 -110 91 -232 l98 -224 3 -152 3 -153 63 0 63
0 6 85 c3 47 4 107 0 133 -6 53 12 101 139 380 38 83 66 157 63 162 -9 15
-121 13 -133 -2 -5 -7 -35 -78 -66 -158 -32 -80 -61 -148 -65 -153 -4 -4 -31
57 -61 135 -72 194 -68 188 -140 188 -32 0 -61 -4 -64 -9z"/>
<path d="M9818 3483 c6 -2 18 -2 25 0 6 3 1 5 -13 5 -14 0 -19 -2 -12 -5z"/>
<path d="M9652 3439 c-7 -25 -10 -53 -6 -64 5 -13 4 -16 -4 -11 -8 5 -12 0
-12 -13 0 -27 21 -26 41 2 21 29 35 72 20 63 -6 -4 -11 0 -11 8 0 9 5 16 11
16 5 0 7 5 3 11 -4 8 -9 7 -14 -2 -6 -8 -9 -5 -12 11 -2 18 -6 13 -16 -21z
m15 -36 c-3 -10 -5 -4 -5 12 0 17 2 24 5 18 2 -7 2 -21 0 -30z"/>
<path d="M5075 3463 c11 -3 24 -10 28 -17 6 -7 7 -6 4 4 -2 8 -14 16 -28 17
-19 1 -20 1 -4 -4z"/>
<path d="M5237 3453 c-4 -3 -7 -24 -7 -45 0 -28 17 -74 61 -161 34 -67 66
-129 73 -137 6 -8 22 -35 35 -60 13 -25 32 -54 42 -66 11 -11 19 -24 19 -28 0
-7 51 -85 76 -116 7 -8 33 -42 58 -75 63 -86 283 -297 304 -293 10 2 18 14 20
31 3 23 -11 42 -90 120 -94 94 -158 165 -191 212 -10 14 -23 22 -29 19 -7 -5
-9 -1 -5 9 3 9 0 20 -7 24 -16 10 -95 129 -108 162 -8 23 -9 23 -23 5 -14 -18
-14 -17 -4 7 9 22 7 34 -19 80 -17 30 -36 73 -43 96 -7 24 -16 40 -22 36 -6
-3 -7 -1 -4 4 15 24 -66 173 -93 173 -6 0 -8 -4 -5 -10 3 -6 -1 -7 -9 -4 -12
4 -16 0 -17 -17 -1 -18 -2 -20 -6 -6 -3 10 1 24 7 32 12 15 0 22 -13 8z m113
-209 c0 -8 -5 -12 -10 -9 -6 4 -8 11 -5 16 9 14 15 11 15 -7z m17 -16 c-3 -8
-6 -5 -6 6 -1 11 2 17 5 13 3 -3 4 -12 1 -19z m57 -111 c7 -6 6 -7 -4 -4 -8 2
-16 12 -17 23 -2 13 -1 15 4 4 3 -8 11 -19 17 -23z m26 -48 c0 -6 -4 -7 -10
-4 -5 3 -10 11 -10 16 0 6 5 7 10 4 6 -3 10 -11 10 -16z m-2 -64 c-3 -3 -9 2
-12 12 -6 14 -5 15 5 6 7 -7 10 -15 7 -18z m42 -18 c0 -5 -4 -5 -10 -2 -5 3
-10 14 -10 23 0 15 2 15 10 2 5 -8 10 -19 10 -23z m30 -21 c0 -11 -19 -15 -25
-6 -3 5 1 10 9 10 9 0 16 -2 16 -4z m52 -83 c19 -29 38 -50 42 -46 4 4 4 0 0
-10 -4 -13 -2 -16 9 -11 8 3 18 1 22 -5 3 -7 -2 -11 -14 -11 -11 0 -23 -5 -27
-11 -10 -16 -25 12 -18 33 4 13 1 16 -10 12 -9 -3 -16 -1 -16 5 0 6 5 11 12
11 6 0 0 13 -15 28 -15 15 -27 37 -27 48 -1 16 -3 16 -15 -6 -17 -29 -20 -19
-4 12 12 23 14 22 61 -49z m-37 -11 c-3 -3 -11 0 -18 7 -9 10 -8 11 6 5 10 -3
15 -9 12 -12z m161 -139 c3 -12 4 -28 1 -35 -3 -7 -6 0 -6 15 -1 31 -28 47
-43 26 -8 -11 -8 -10 -4 5 4 10 1 26 -6 34 -10 12 -4 11 20 -4 18 -10 35 -29
38 -41z m-19 -25 c2 -17 0 -19 -7 -8 -5 8 -6 18 -4 22 8 12 10 10 11 -14z m50
-10 c-3 -8 -6 -5 -6 6 -1 11 2 17 5 13 3 -3 4 -12 1 -19z m-7 -33 c0 -8 -2
-15 -4 -15 -2 0 -6 7 -10 15 -3 8 -1 15 4 15 6 0 10 -7 10 -15z m50 -9 c9 -12
8 -15 -9 -13 -12 1 -21 7 -21 14 0 17 15 16 30 -1z m0 -32 c0 -8 -19 -13 -24
-6 -3 5 1 9 9 9 8 0 15 -2 15 -3z m95 -63 c-6 -5 -25 10 -25 20 0 5 6 4 14 -3
8 -7 12 -15 11 -17z m-25 -11 c8 -5 11 -10 6 -10 -6 0 -1 -7 10 -16 19 -15 18
-15 -2 -5 -23 11 -51 41 -38 41 5 0 16 -5 24 -10z"/>
<path d="M5590 2810 c0 -5 5 -10 11 -10 5 0 7 5 4 10 -3 6 -8 10 -11 10 -2 0
-4 -4 -4 -10z"/>
<path d="M4952 3434 c-7 -8 -8 -14 -3 -14 10 0 25 19 20 25 -2 1 -10 -3 -17
-11z"/>
<path d="M5065 3439 c-11 -16 -1 -19 13 -3 7 8 8 14 3 14 -5 0 -13 -5 -16 -11z"/>
<path d="M8147 3425 c-26 -7 -61 -25 -77 -40 -119 -114 -97 -432 34 -503 19
-10 56 -16 97 -17 57 0 70 4 103 29 59 44 90 121 94 231 2 49 -1 113 -7 142
-28 124 -128 189 -244 158z m121 -135 c18 -37 22 -61 22 -140 0 -80 -4 -103
-22 -140 -42 -80 -109 -74 -149 13 -21 48 -27 196 -8 244 19 52 49 74 94 71
36 -3 42 -7 63 -48z"/>
<path d="M9460 3422 c-49 -33 -63 -62 -29 -62 11 0 18 -4 15 -9 -3 -5 -15 -7
-25 -4 -22 6 -36 -17 -71 -111 -12 -30 -37 -85 -56 -121 -19 -36 -32 -71 -28
-77 4 -6 3 -8 -4 -4 -13 8 -56 -50 -47 -64 4 -6 2 -9 -4 -8 -15 5 -60 -62 -54
-80 4 -13 2 -14 -4 -4 -7 10 -17 2 -38 -30 -16 -24 -88 -102 -160 -174 -135
-133 -156 -162 -132 -183 20 -16 99 41 91 66 -5 15 -4 15 4 4 8 -12 27 1 92
66 54 53 80 86 75 94 -5 7 -4 10 3 5 18 -11 189 204 177 223 -3 5 0 13 6 17 8
4 9 3 5 -4 -4 -7 -5 -12 -3 -12 6 0 67 100 67 110 0 5 3 10 8 12 4 2 28 37 53
78 37 59 46 82 43 110 -4 44 3 80 17 80 6 0 6 -7 -1 -21 -6 -11 -9 -25 -7 -32
3 -7 12 5 21 25 14 32 36 59 36 44 0 -9 -44 -81 -53 -87 -5 -4 -8 -12 -5 -19
6 -19 65 79 73 121 5 27 2 40 -10 52 -20 21 -23 20 -55 -1z m40 -20 c-8 -2
-20 -11 -27 -19 -6 -8 -20 -13 -30 -11 -14 3 -11 8 17 24 19 12 39 19 45 16 5
-3 2 -8 -5 -10z m-75 -93 c4 -11 4 -23 1 -26 -3 -4 -6 1 -6 10 0 10 -4 17 -10
17 -5 0 -10 5 -10 10 0 18 19 10 25 -11z m-25 -52 c-8 -9 -9 -7 -4 7 5 13 4
17 -4 12 -13 -8 -17 6 -5 18 4 3 11 -1 16 -10 6 -10 5 -20 -3 -27z m-31 -65
c-12 -5 -12 -32 0 -32 6 0 17 10 25 22 9 12 16 18 16 12 0 -16 -37 -47 -49
-40 -5 4 -9 19 -9 35 1 23 4 26 14 17 6 -6 8 -12 3 -14z m1 -72 c0 -5 -4 -10
-9 -10 -6 0 -13 5 -16 10 -3 6 1 10 9 10 9 0 16 -4 16 -10z m-64 -92 c-18 -26
-22 -17 -5 14 6 11 13 17 16 15 3 -3 -2 -16 -11 -29z m-177 -222 c8 -10 9 -16
1 -21 -6 -4 -10 -3 -9 2 4 21 -2 24 -18 12 -16 -13 -17 -12 -4 4 16 21 16 21
30 3z m-49 -46 c0 -5 -5 -10 -11 -10 -5 0 -7 5 -4 10 3 6 8 10 11 10 2 0 4 -4
4 -10z m-40 -40 c0 -5 -5 -10 -11 -10 -5 0 -7 5 -4 10 3 6 8 10 11 10 2 0 4
-4 4 -10z m18 -19 c-7 -12 -16 -21 -21 -21 -4 0 0 11 9 25 20 30 31 26 12 -4z
m-88 -50 c0 -5 -7 -12 -16 -15 -14 -5 -15 -4 -4 9 14 17 20 19 20 6z m30 -11
c0 -5 -5 -10 -11 -10 -5 0 -7 5 -4 10 3 6 8 10 11 10 2 0 4 -4 4 -10z m-80
-40 c0 -5 -5 -10 -11 -10 -5 0 -7 5 -4 10 3 6 8 10 11 10 2 0 4 -4 4 -10z"/>
<path d="M6148 3424 c-17 -5 -18 -27 -18 -274 0 -235 2 -269 16 -274 9 -3 49
-6 90 -6 132 0 190 42 201 143 6 55 -9 99 -41 126 -14 12 -13 17 7 45 17 24
22 45 22 91 0 107 -45 145 -179 151 -45 1 -89 1 -98 -2z m144 -88 c54 -12 56
-116 1 -137 -58 -22 -63 -16 -63 70 0 86 -5 81 62 67z m36 -244 c17 -22 15
-83 -4 -110 -11 -16 -25 -22 -55 -22 l-39 0 0 80 0 80 43 -6 c23 -4 48 -13 55
-22z"/>
<path d="M7577 3409 c-41 -22 -91 -91 -107 -149 -15 -54 -12 -190 6 -250 26
-88 105 -150 191 -150 41 0 123 22 138 37 13 12 15 40 13 146 l-3 132 -62 3
c-77 4 -103 -9 -103 -48 0 -25 4 -29 33 -32 28 -3 33 -7 37 -38 9 -64 0 -100
-26 -106 -40 -10 -83 15 -106 60 -45 89 -30 260 28 305 34 27 85 27 109 1 25
-27 49 -25 69 6 23 34 17 54 -23 81 -45 30 -139 31 -194 2z"/>
<path d="M6622 3148 l3 -273 45 0 45 0 3 273 2 272 -50 0 -50 0 2 -272z"/>
<path d="M6930 3144 l0 -275 48 3 47 3 0 163 c0 89 1 162 1 162 1 0 39 -74 85
-165 l83 -166 46 3 c45 3 45 3 45 41 -1 20 -2 143 -3 273 l-2 235 -47 -3 -48
-3 0 -158 c0 -86 -2 -157 -5 -157 -3 0 -40 72 -82 160 l-76 160 -46 0 -46 0 0
-276z"/>
<path d="M5071 3393 c-1 -26 18 -73 31 -73 5 0 5 8 0 18 -5 9 -7 24 -5 32 4
13 3 13 -5 1 -8 -11 -11 -8 -15 15 -3 20 -4 23 -6 7z"/>
<path d="M4780 3216 c0 -26 44 -153 84 -239 13 -29 33 -73 44 -98 47 -103 223
-380 272 -429 3 -3 32 -39 65 -80 74 -94 276 -296 375 -376 413 -335 881 -539
1401 -611 150 -20 504 -23 654 -4 488 60 956 251 1359 555 244 185 500 466
658 721 30 50 65 106 77 125 43 70 171 341 166 350 -9 14 -41 12 -53 -2 -5 -7
-24 -47 -42 -88 -52 -119 -167 -326 -248 -444 -300 -436 -800 -829 -1282
-1008 -316 -117 -603 -168 -950 -168 -339 0 -584 43 -895 155 -279 101 -552
254 -781 436 -103 83 -352 332 -434 434 -162 203 -307 463 -405 723 -20 55
-31 72 -46 72 -13 0 -19 -7 -19 -24z"/>
<path d="M5010 3159 c0 -16 5 -29 11 -29 8 0 9 -13 5 -41 -13 -84 40 -190 129
-257 30 -23 57 -37 60 -32 3 5 7 31 9 57 5 61 28 67 93 24 55 -37 65 -38 54
-8 -36 89 -87 167 -109 167 -6 0 -9 7 -6 15 4 8 2 15 -3 15 -4 0 -20 11 -34
24 -30 27 -62 46 -81 46 -9 0 -9 -3 2 -10 18 -12 2 -12 -25 0 -14 6 -15 9 -5
10 9 0 6 6 -10 15 -14 8 -33 12 -44 8 -11 -3 -16 -1 -12 5 3 5 -3 12 -14 15
-17 4 -20 0 -20 -24z m86 -41 c5 -7 3 -8 -6 -3 -10 6 -12 4 -7 -8 4 -11 1 -15
-12 -14 -24 1 -25 37 -1 37 10 0 22 -5 26 -12z m134 -48 c13 -9 13 -11 0 -20
-8 -5 -19 -10 -25 -10 -5 0 -3 5 5 10 13 9 13 11 0 20 -8 5 -10 10 -5 10 6 0
17 -5 25 -10z m74 -96 c3 -8 2 -12 -4 -9 -6 3 -10 10 -10 16 0 14 7 11 14 -7z
m-220 -30 c3 -8 2 -12 -4 -9 -6 3 -10 10 -10 16 0 14 7 11 14 -7z m36 12 c0
-3 -4 -8 -10 -11 -5 -3 -10 -1 -10 4 0 6 5 11 10 11 6 0 10 -2 10 -4z m168
-20 c2 -9 8 -16 14 -16 5 0 8 7 4 15 -3 8 -1 15 4 15 6 0 10 -9 10 -20 0 -25
-30 -27 -37 -2 -3 14 -11 18 -28 14 -13 -2 -31 0 -40 5 -11 7 -4 9 27 7 30 -1
44 -6 46 -18z m-76 -18 c-7 -7 -8 -17 -2 -27 9 -18 2 -71 -10 -71 -14 0 -36
35 -39 63 -2 22 2 27 18 27 12 0 21 5 21 10 0 6 5 10 12 10 9 0 9 -3 0 -12z"/>
<path d="M5177 2894 c-9 -10 2 -24 18 -24 9 0 12 6 9 15 -6 16 -17 19 -27 9z"/>
<path d="M5185 2850 c3 -5 8 -10 11 -10 2 0 4 5 4 10 0 6 -5 10 -11 10 -5 0
-7 -4 -4 -10z"/>
<path d="M9685 3160 c-131 -59 -173 -81 -190 -100 -19 -21 -19 -21 13 -15 19
3 32 1 32 -5 0 -10 -14 -14 -39 -11 -7 2 -11 -4 -8 -11 2 -7 10 -12 16 -10 6
1 11 -5 11 -14 0 -13 -3 -14 -13 -5 -10 8 -17 7 -25 -1 -17 -17 -15 -33 2 -19
8 7 16 8 19 4 3 -4 -13 -19 -34 -33 -25 -15 -36 -27 -29 -34 6 -6 15 -5 24 3
22 18 37 5 26 -23 -10 -26 -5 -36 18 -36 11 0 12 3 3 14 -8 9 -8 20 -1 37 10
24 10 23 7 -3 -4 -30 15 -39 30 -15 12 20 55 47 74 47 10 0 20 -11 23 -25 5
-21 29 -38 24 -17 0 4 2 14 5 22 18 42 66 213 62 220 -3 5 0 10 6 12 6 2 9 13
7 24 -3 21 -4 21 -63 -6z m20 -40 c-3 -5 -1 -10 4 -10 6 0 11 -9 11 -20 0 -25
-17 -26 -23 -2 -2 9 -3 -1 -1 -23 2 -30 1 -35 -6 -20 -13 29 -12 59 2 73 15
15 21 16 13 2z m-125 -40 c0 -5 -2 -10 -4 -10 -3 0 -8 5 -11 10 -3 6 -1 10 4
10 6 0 11 -4 11 -10z m-40 -14 c0 -2 -7 -7 -16 -10 -8 -3 -12 -2 -9 4 6 10 25
14 25 6z m37 -12 c-3 -3 -12 -4 -19 -1 -8 3 -5 6 6 6 11 1 17 -2 13 -5z m-67
-114 c0 -5 -4 -10 -10 -10 -5 0 -10 5 -10 10 0 6 5 10 10 10 6 0 10 -4 10 -10z
m54 -14 c-10 -8 -21 -12 -24 -10 -5 6 21 24 34 24 6 0 1 -6 -10 -14z"/>
<path d="M5011 3104 c0 -11 3 -14 6 -6 3 7 2 16 -1 19 -3 4 -6 -2 -5 -13z"/>
<path d="M9461 3016 c-8 -9 -11 -19 -7 -23 9 -9 29 13 24 27 -2 8 -8 7 -17 -4z"/>
<path d="M9421 2968 c-10 -16 -10 -23 0 -32 9 -8 11 -7 6 5 -3 9 0 22 6 28 6
6 9 13 6 15 -3 3 -11 -4 -18 -16z"/>
<path d="M9380 2901 c0 -6 4 -13 10 -16 6 -3 7 1 4 9 -7 18 -14 21 -14 7z"/>
<path d="M5368 2760 c-34 -112 -34 -112 -4 -108 26 3 27 2 30 -63 3 -63 35
-159 54 -159 4 0 14 16 22 35 17 43 28 44 65 5 32 -33 45 -27 45 24 0 22 -4
27 -16 22 -9 -3 -18 -6 -20 -6 -2 0 -4 -8 -5 -17 0 -14 -2 -15 -6 -3 -3 8 -11
18 -17 22 -6 5 -1 8 12 8 13 0 21 4 17 9 -3 5 -19 8 -35 6 -17 -2 -30 0 -30 5
0 6 15 10 33 11 17 0 26 3 19 6 -6 2 -9 9 -6 15 4 6 10 5 16 -3 8 -11 11 -11
15 -1 3 9 10 7 24 -9 31 -36 25 -18 -53 146 -10 23 -128 101 -128 86 0 -5 9
-12 19 -16 10 -3 21 -15 24 -27 4 -15 11 -19 24 -14 13 5 15 4 7 -4 -14 -14
-42 -3 -47 18 -3 12 -5 10 -6 -5 0 -13 -6 -23 -11 -23 -6 0 -8 11 -4 25 4 15
2 25 -4 25 -6 0 -12 10 -14 23 -3 16 -8 6 -20 -33z m19 -22 c-3 -8 -6 -5 -6 6
-1 11 2 17 5 13 3 -3 4 -12 1 -19z m28 -38 c8 -13 -5 -13 -25 0 -13 8 -13 10
2 10 9 0 20 -4 23 -10z m19 -45 c3 -8 1 -15 -4 -15 -5 0 -11 -19 -13 -42 -3
-34 -4 -31 -4 15 0 55 9 73 21 42z m110 -11 c5 -14 4 -15 -9 -4 -17 14 -19 20
-6 20 5 0 12 -7 15 -16z m11 -52 c-6 -6 -35 18 -35 29 0 5 9 1 20 -8 11 -9 17
-19 15 -21z m-105 -42 c5 8 12 11 16 8 3 -4 -1 -14 -9 -22 -12 -12 -17 -13
-21 -3 -3 6 -5 -5 -3 -25 2 -23 -1 -34 -6 -29 -5 5 -6 32 -1 63 7 41 9 47 12
24 3 -22 6 -26 12 -16z m14 -62 c-13 -44 -22 -52 -19 -17 2 18 4 35 4 37 1 1
6 2 12 2 6 0 8 -9 3 -22z"/>
<path d="M9307 2759 c-22 -12 -35 -24 -31 -31 4 -7 3 -8 -5 -4 -15 10 -83 -54
-76 -72 2 -7 1 -10 -5 -7 -11 7 -64 -81 -56 -93 3 -5 6 -25 8 -44 2 -34 3 -35
30 -27 32 9 33 7 42 -43 4 -21 11 -38 16 -38 8 0 39 60 84 164 17 40 28 42 80
21 17 -8 18 -5 12 30 -4 21 -17 63 -29 94 -12 31 -20 59 -19 64 3 11 -10 8
-51 -14z m33 -3 c0 -2 -12 -12 -27 -21 l-28 -18 19 21 c17 20 36 29 36 18z
m-75 -96 c3 -5 1 -10 -4 -10 -6 0 -11 5 -11 10 0 6 2 10 4 10 3 0 8 -4 11 -10z
m85 -32 c0 6 8 9 18 7 28 -6 28 -7 2 -14 -28 -9 -50 -4 -50 11 0 6 6 5 15 -2
9 -7 15 -8 15 -2z m-184 -56 c0 -10 -6 -19 -13 -19 -8 0 -9 6 -2 19 5 10 11
18 12 18 2 0 3 -8 3 -18z m127 -17 c-3 -9 -8 -14 -10 -11 -3 3 -2 9 2 15 9 16
15 13 8 -4z"/>
<path d="M5556 2552 c-3 -6 -1 -14 5 -17 15 -10 25 3 12 16 -7 7 -13 7 -17 1z"/>
<path d="M6776 2549 c-68 -19 -109 -99 -82 -163 26 -63 95 -88 176 -63 43 14
45 16 48 57 2 23 0 46 -5 51 -10 10 -123 -1 -123 -12 0 -4 21 -9 47 -11 51 -3
63 -17 38 -42 -35 -34 -99 -32 -135 4 -14 14 -20 34 -20 64 0 36 5 48 26 65
32 25 105 29 124 6 7 -8 16 -15 21 -15 11 0 12 37 1 44 -22 13 -90 22 -116 15z"/>
<path d="M7112 2453 c-58 -138 -57 -133 -38 -133 9 0 22 11 28 25 10 22 17 25
67 25 52 0 57 -2 73 -30 16 -29 38 -40 38 -20 0 11 -53 147 -77 198 -26 56
-45 42 -91 -65z m86 0 l20 -53 -44 0 c-29 0 -44 4 -44 13 1 16 39 101 44 96 2
-2 13 -28 24 -56z"/>
<path d="M7430 2429 c0 -92 3 -120 13 -117 8 3 14 35 17 94 l5 89 34 -77 c19
-43 40 -78 46 -78 6 0 28 35 50 78 l40 77 5 -89 c3 -59 9 -91 18 -94 9 -3 12
25 12 118 0 110 -2 121 -17 118 -10 -2 -36 -36 -58 -75 -22 -40 -42 -72 -45
-73 -3 0 -23 34 -45 75 -26 50 -46 75 -57 75 -16 0 -18 -12 -18 -121z"/>
<path d="M7844 2536 c-3 -8 -4 -61 -2 -118 l3 -103 30 -3 c44 -5 139 8 129 18
-5 5 -36 10 -69 12 l-60 3 0 35 0 35 55 3 c30 2 57 6 59 8 10 9 -9 15 -58 16
l-51 2 0 38 0 37 63 3 c88 4 77 22 -16 26 -60 2 -79 0 -83 -12z"/>
<path d="M5756 2431 c-6 -9 106 -108 142 -124 33 -15 39 -1 12 28 -27 28 -50
34 -29 8 13 -16 12 -17 -3 -4 -10 7 -16 17 -13 21 7 11 -12 23 -39 24 -13 1
-21 8 -20 17 1 12 -5 15 -20 11 -19 -5 -19 -4 -7 11 12 15 11 17 -2 17 -9 0
-18 -4 -21 -9z"/>
<path d="M8908 2386 c-10 -7 -18 -23 -18 -34 0 -25 -16 -37 -26 -21 -4 7 -3 9
3 6 5 -3 10 0 10 8 0 16 -26 6 -47 -20 -11 -13 -10 -14 5 -9 25 10 11 -12 -17
-27 -18 -10 -20 -9 -14 7 6 15 5 17 -5 7 -10 -10 -10 -16 -1 -25 12 -12 67 20
126 73 38 35 24 66 -16 35z m32 -4 c0 -4 -9 -13 -20 -20 -23 -14 -26 -8 -7 13
13 16 27 19 27 7z"/>
<path d="M5660 2328 c-10 -21 -10 -21 3 -5 14 16 33 25 24 10 -3 -5 6 -8 19
-8 22 0 23 1 7 13 -25 18 -41 15 -53 -10z"/>
<path d="M9010 2308 c-41 -20 -79 -48 -66 -48 3 0 -3 -16 -14 -35 -19 -34 -15
-46 8 -23 6 6 14 9 18 6 3 -4 -4 -16 -15 -27 -15 -15 -17 -21 -6 -21 7 0 19 8
24 18 9 15 10 15 11 0 0 -9 3 -25 6 -35 3 -10 2 -14 -3 -8 -15 19 -28 13 -30
-13 -2 -45 -57 -69 -59 -26 -1 39 -16 73 -29 67 -8 -2 -40 5 -72 18 -46 18
-79 22 -163 23 -102 1 -110 -1 -285 -57 -99 -33 -211 -72 -250 -87 -196 -79
-375 -110 -655 -117 -306 -7 -511 22 -784 111 -96 32 -96 32 -96 2 0 -20 8
-27 43 -40 230 -82 449 -123 712 -133 189 -7 437 20 620 67 108 28 155 35 205
32 21 -2 26 -7 25 -29 0 -14 -6 -27 -13 -29 -7 -1 -8 0 -2 3 5 2 10 9 10 13 0
16 -182 -70 -188 -88 -5 -16 104 -34 161 -27 48 6 117 40 117 57 0 4 16 24 35
44 19 19 35 41 35 47 0 16 74 57 139 77 l54 17 -36 7 c-21 4 -37 11 -37 16 0
6 10 6 26 0 22 -9 25 -8 20 5 -4 13 8 15 79 15 63 0 84 -3 83 -12 -2 -9 12
-14 40 -16 23 -2 42 -7 42 -12 0 -5 13 -22 29 -38 l29 -29 26 30 c14 16 26 33
26 39 0 5 12 8 28 6 22 -2 27 -7 24 -27 l-2 -25 18 22 c11 12 23 22 27 22 5 0
-2 -11 -14 -24 -14 -14 -29 -22 -38 -19 -9 4 -20 -1 -25 -11 -5 -9 -13 -14
-18 -11 -5 3 -11 1 -15 -5 -3 -5 0 -10 7 -11 18 -1 -33 -17 -57 -17 l-20 -1
20 9 c19 8 19 9 -2 9 -28 1 -37 -13 -18 -29 12 -10 26 -8 74 9 68 26 122 77
205 197 67 97 91 150 74 160 -6 4 -8 3 -5 -3 4 -6 0 -19 -8 -29 -14 -18 -15
-18 -12 5 3 33 -10 35 -63 9z m60 2 c0 -5 -4 -10 -10 -10 -5 0 -10 5 -10 10 0
6 5 10 10 10 6 0 10 -4 10 -10z m-15 -52 c-8 -38 -45 -84 -45 -56 0 19 -28 44
-37 34 -4 -4 -1 -11 7 -16 8 -5 11 -12 8 -16 -8 -8 -38 20 -38 35 0 6 7 11 16
11 9 0 12 5 8 12 -5 8 -2 9 10 5 10 -4 21 -7 24 -7 4 0 0 -5 -8 -10 -13 -8
-12 -10 3 -10 10 0 15 -4 12 -10 -3 -5 1 -10 9 -10 9 0 16 9 16 21 0 13 -4 18
-12 13 -7 -4 -8 -3 -4 5 4 6 12 9 17 6 5 -4 9 1 9 9 0 9 3 16 6 16 3 0 3 -15
-1 -32z m-332 -75 c-7 -2 -19 -2 -25 0 -7 3 -2 5 12 5 14 0 19 -2 13 -5z
m-214 -7 c-2 -2 -20 -6 -39 -10 -25 -4 -31 -3 -20 4 14 9 69 15 59 6z m124 -3
c-7 -2 -21 -2 -30 0 -10 3 -4 5 12 5 17 0 24 -2 18 -5z m134 1 c-3 -3 -12 -4
-19 -1 -8 3 -5 6 6 6 11 1 17 -2 13 -5z m230 -16 c-3 -8 -6 -5 -6 6 -1 11 2
17 5 13 3 -3 4 -12 1 -19z m-284 5 c-7 -2 -21 -2 -30 0 -10 3 -4 5 12 5 17 0
24 -2 18 -5z m95 -24 c-3 -8 -7 -3 -11 10 -4 17 -3 21 5 13 5 -5 8 -16 6 -23z
m-417 -3 c-9 -11 -9 -15 1 -19 7 -3 9 -6 3 -6 -5 0 -17 4 -25 9 -13 9 -12 12
4 25 23 17 34 12 17 -9z m-51 -16 c0 -5 -4 -10 -10 -10 -5 0 -10 5 -10 10 0 6
5 10 10 10 6 0 10 -4 10 -10z m30 -20 c0 -5 -10 -10 -22 -10 -19 0 -20 2 -8
10 19 13 30 13 30 0z m-61 -16 c9 -8 -45 -2 -64 6 -14 7 -8 8 20 3 22 -3 42
-7 44 -9z m123 -9 c13 -8 6 -14 -36 -31 -46 -18 -54 -18 -66 -5 -12 13 -12 14
2 9 8 -4 33 0 54 8 l39 15 -40 -5 c-22 -3 -47 -1 -55 5 -11 7 -8 8 11 3 15 -3
30 -1 33 5 8 12 33 10 58 -4z m-162 -79 c0 -2 -7 -9 -15 -16 -13 -11 -14 -10
-9 4 5 14 24 23 24 12z m-74 -91 c-8 -8 -18 -15 -22 -15 -3 0 -1 7 6 15 7 8
17 15 22 15 5 0 3 -7 -6 -15z"/>
<path d="M5660 2291 c0 -5 5 -13 10 -16 6 -3 10 -2 10 4 0 5 -4 13 -10 16 -5
3 -10 2 -10 -4z"/>
<path d="M5755 2291 c-3 -5 0 -31 7 -57 10 -38 10 -48 1 -51 -7 -3 -13 -12
-13 -21 -1 -10 -9 -2 -19 18 -16 30 -16 38 -4 58 15 24 7 28 -19 9 -15 -12
-15 -18 13 -73 16 -32 36 -64 44 -70 8 -6 15 -16 15 -23 0 -6 5 -11 10 -11 19
0 10 29 -16 49 -25 20 -25 41 -1 41 17 0 17 72 0 88 -7 7 -13 19 -13 25 1 25
39 -40 45 -75 8 -44 1 -60 -23 -51 -15 6 -15 5 -3 -10 19 -24 25 -22 46 16
l17 33 -36 57 c-38 60 -41 63 -51 48z"/>
<path d="M8899 2237 c-23 -21 -38 -64 -17 -51 5 3 6 10 3 15 -4 5 -2 9 3 9 5
0 17 11 26 25 20 31 18 31 -15 2z"/>
<path d="M5735 2221 c-3 -5 -1 -12 5 -16 5 -3 10 1 10 9 0 18 -6 21 -15 7z"/>
<path d="M6148 2193 c6 -2 18 -2 25 0 6 3 1 5 -13 5 -14 0 -19 -2 -12 -5z"/>
<path d="M6193 2178 c1 -34 -4 -48 -17 -48 -19 0 -33 23 -18 28 13 4 6 22 -8
22 -8 0 -6 -46 4 -79 3 -9 2 -22 -3 -29 -7 -11 -9 -10 -14 3 -4 10 -3 14 4 9
7 -4 9 1 5 15 -3 11 -9 31 -12 42 -5 17 -8 19 -15 8 -6 -10 -9 -11 -9 -1 0 6
-4 12 -10 12 -5 0 -4 -14 4 -32 8 -18 24 -54 35 -80 11 -25 34 -56 51 -68 l31
-22 -5 25 c-6 33 17 42 51 20 l25 -17 -7 32 c-4 21 -3 32 4 32 21 0 11 19 -11
23 -17 3 -15 5 9 6 31 1 31 0 28 -40 -1 -22 -5 -43 -8 -46 -8 -8 12 -44 36
-66 20 -17 44 -16 77 4 11 7 9 9 -10 7 -16 -2 -24 2 -22 10 1 6 -3 12 -9 12
-6 0 -8 -9 -4 -20 3 -11 2 -20 -4 -20 -5 0 -13 9 -16 20 -3 11 -13 20 -21 20
-8 0 -14 5 -14 11 0 6 7 8 16 5 9 -3 21 -3 27 1 7 4 2 10 -13 14 l-25 7 27 1
c15 1 33 10 41 21 13 19 14 19 40 -6 15 -14 27 -29 27 -34 0 -6 6 -10 14 -10
9 0 13 -9 12 -24 -2 -17 1 -23 10 -19 17 6 18 23 2 23 -6 0 -8 3 -5 6 4 4 14
1 23 -7 14 -12 14 -14 -3 -27 -16 -13 -16 -14 0 -9 9 4 17 2 17 -2 0 -5 -25
-9 -56 -9 -39 0 -52 4 -42 10 10 7 8 8 -5 4 -10 -3 -24 -6 -30 -7 -23 -1 32
-18 75 -23 53 -6 68 2 65 35 -1 19 -21 42 -65 79 -34 28 -74 71 -88 95 -26 44
-47 67 -68 72 -6 1 -29 7 -51 12 -54 14 -73 13 -72 -1z m84 -14 c-3 -3 -12 -4
-19 -1 -8 3 -5 6 6 6 11 1 17 -2 13 -5z m50 -56 c-3 -8 -6 -5 -6 6 -1 11 2 17
5 13 3 -3 4 -12 1 -19z m32 -6 c7 -14 6 -18 -9 -19 -13 -1 -16 4 -13 18 7 24
10 24 22 1z m-104 -52 c3 -6 -4 -10 -17 -10 -18 0 -20 2 -8 10 19 12 18 12 25
0z m-91 -16 c3 -8 2 -12 -4 -9 -6 3 -10 10 -10 16 0 14 7 11 14 -7z"/>
<path d="M6088 2173 c6 -2 18 -2 25 0 6 3 1 5 -13 5 -14 0 -19 -2 -12 -5z"/>
<path d="M5836 2148 c-3 -12 -3 -24 -1 -27 3 -2 5 1 5 8 0 9 5 9 21 0 12 -6
35 -8 51 -5 26 5 29 4 18 -9 -7 -8 -8 -15 -2 -15 5 0 15 6 21 14 10 12 8 17
-7 25 -11 6 -22 8 -24 6 -3 -3 -21 1 -40 10 -34 14 -36 13 -42 -7z"/>
<path d="M8885 2160 c-3 -6 1 -7 9 -4 18 7 21 14 7 14 -6 0 -13 -4 -16 -10z"/>
<path d="M5845 2100 c3 -5 15 -10 26 -10 10 0 19 5 19 10 0 6 -12 10 -26 10
-14 0 -23 -4 -19 -10z"/>
<path d="M5952 2095 c-7 -8 -9 -15 -4 -15 5 0 17 -19 26 -42 12 -31 19 -39 25
-30 6 10 10 4 15 -19 8 -41 2 -46 -30 -28 -14 7 -21 15 -15 17 7 2 19 -2 28
-10 14 -11 16 -11 11 2 -2 8 -19 16 -36 18 -22 2 -29 7 -25 18 3 8 0 14 -7 14
-6 0 -9 -4 -6 -8 3 -5 -9 -9 -27 -9 -18 0 -24 2 -14 4 9 3 17 9 17 14 0 6 -9
8 -19 4 -24 -7 -54 21 -47 44 4 11 1 10 -10 -4 -15 -19 -15 -19 -9 8 4 16 3
27 -3 27 -24 0 -20 -43 6 -67 36 -33 80 -55 94 -47 6 4 8 3 5 -3 -4 -6 14 -20
41 -31 42 -19 48 -19 59 -6 17 23 -19 134 -44 134 -7 0 -10 7 -7 15 8 19 -7
19 -24 0z"/>
<path d="M5866 2065 c-3 -9 0 -15 9 -15 8 0 15 5 15 10 0 6 5 10 11 10 6 0 9
-6 6 -14 -3 -8 2 -16 13 -19 11 -3 21 1 24 9 3 8 -1 14 -9 14 -8 0 -15 5 -15
10 0 16 -47 12 -54 -5z"/>
<path d="M8605 2069 c15 -7 10 -8 -17 -4 -23 4 -38 2 -38 -5 0 -5 9 -10 21
-10 11 0 33 -7 49 -16 28 -17 60 -14 60 6 0 5 -16 17 -36 25 -39 16 -72 20
-39 4z"/>
<path d="M8580 1979 c-19 -17 -52 -39 -72 -50 -21 -11 -38 -25 -38 -33 0 -7
-20 -21 -44 -30 -45 -17 -86 -47 -86 -61 0 -5 11 2 24 14 23 22 23 22 29 2 3
-12 11 -21 17 -21 9 0 9 4 2 13 -6 7 -7 19 -3 26 7 11 13 11 32 0 13 -7 19
-14 12 -16 -7 -3 -9 -11 -6 -19 5 -13 -8 -18 -44 -17 -7 1 -13 -4 -13 -9 0 -6
-7 -7 -15 -4 -8 3 -22 9 -30 12 -9 4 -15 0 -15 -9 0 -29 109 -12 193 30 26 13
45 28 42 33 -3 5 0 7 8 4 20 -7 109 90 100 112 -5 13 -2 15 15 10 15 -5 24 -1
31 12 13 24 4 34 -20 22 -9 -6 -24 -7 -32 -4 -9 3 -31 -9 -53 -30 -29 -28 -34
-36 -20 -36 16 0 16 -2 6 -15 -7 -9 -19 -14 -27 -11 -16 6 -16 1 -2 -26 6 -11
7 -18 2 -15 -9 6 -35 -18 -27 -26 3 -2 -2 -7 -10 -10 -9 -4 -15 -1 -13 5 1 6
-13 15 -31 20 -29 8 -32 11 -21 24 7 9 21 13 32 10 10 -2 27 4 38 15 10 10 27
16 36 14 10 -3 5 1 -11 9 -27 12 -28 14 -9 20 20 6 80 66 66 66 -5 -1 -24 -14
-43 -31z m134 6 c-7 -16 -24 -21 -24 -6 0 8 7 13 27 20 1 1 0 -6 -3 -14z m-44
-5 c0 -5 -4 -10 -10 -10 -5 0 -10 5 -10 10 0 6 5 10 10 10 6 0 10 -4 10 -10z
m-20 -20 c9 -16 8 -18 -5 -14 -8 4 -15 1 -15 -5 0 -6 5 -11 12 -11 6 0 -1 -13
-17 -30 -16 -16 -31 -28 -33 -25 -3 3 4 13 16 23 15 13 18 22 11 29 -7 7 -7
17 3 32 16 26 15 26 28 1z m-115 -40 c3 -6 -4 -10 -17 -10 -18 0 -20 2 -8 10
19 12 18 12 25 0z m-60 -73 c11 -8 14 -16 8 -20 -6 -4 -18 2 -28 13 -21 23 -8
27 20 7z"/>
<path d="M6650 1850 c0 -5 7 -7 15 -4 8 4 15 8 15 10 0 2 -7 4 -15 4 -8 0 -15
-4 -15 -10z"/>
<path d="M6699 1841 c8 -5 19 -7 25 -5 6 2 18 -1 26 -6 13 -9 13 -11 0 -20
-13 -8 -12 -10 3 -10 19 0 23 25 6 36 -7 4 -26 8 -43 10 -21 3 -27 1 -17 -5z"/>
<path d="M6665 1820 c3 -5 18 -10 32 -10 32 0 28 5 -10 14 -19 4 -26 3 -22 -4z"/>
<path d="M7575 1800 c-17 -4 -22 -8 -12 -9 10 0 15 -5 12 -11 -3 -5 1 -10 11
-10 13 0 14 -3 4 -15 -15 -19 -41 -20 -34 -2 8 23 -20 39 -49 28 -38 -15 -40
-27 -8 -50 16 -12 32 -21 35 -21 4 0 57 -25 119 -56 l112 -56 92 7 c84 6 153
22 169 38 4 4 1 13 -5 21 -15 17 -134 76 -155 76 -8 0 -16 4 -18 8 -4 11 -144
51 -198 56 -25 3 -58 1 -75 -4z m80 -30 c-3 -5 -15 -10 -26 -10 -10 0 -19 5
-19 10 0 6 12 10 26 10 14 0 23 -4 19 -10z m65 0 c-8 -5 -22 -10 -30 -10 -13
0 -13 1 0 10 8 5 22 10 30 10 13 0 13 -1 0 -10z m-169 -37 c19 -8 30 -8 37 -1
8 8 11 5 9 -9 -1 -18 -5 -20 -26 -12 -42 17 -80 42 -74 51 2 5 10 3 16 -5 7
-7 24 -18 38 -24z m-6 27 c-3 -5 -10 -10 -16 -10 -5 0 -9 5 -9 10 0 6 7 10 16
10 8 0 12 -4 9 -10z m335 -64 c0 -3 -4 -8 -10 -11 -5 -3 -10 -1 -10 4 0 6 5
11 10 11 6 0 10 -2 10 -4z m-93 -22 c-3 -3 -12 -4 -19 -1 -8 3 -5 6 6 6 11 1
17 -2 13 -5z m176 -1 c-13 -2 -23 -8 -23 -13 0 -4 -7 -10 -15 -14 -19 -7 -19
-1 1 18 8 9 25 15 37 15 22 -2 22 -2 0 -6z m-93 -7 c0 -2 -7 -6 -15 -10 -8 -3
-15 -1 -15 4 0 6 7 10 15 10 8 0 15 -2 15 -4z m-123 -12 c-3 -3 -12 -4 -19 -1
-8 3 -5 6 6 6 11 1 17 -2 13 -5z m263 -4 c0 -5 -7 -7 -15 -4 -8 4 -15 8 -15
10 0 2 7 4 15 4 8 0 15 -4 15 -10z"/>
<path d="M6990 1791 c-47 -4 -98 -13 -115 -19 -16 -7 -43 -18 -59 -25 -70 -29
-150 -73 -154 -84 -8 -29 204 -68 292 -53 28 5 92 25 141 45 50 20 101 39 114
41 29 6 98 40 106 53 3 6 -6 18 -21 28 -31 20 -157 26 -304 14z m310 -41 c0
-13 -26 -19 -51 -13 -23 6 -23 7 6 19 30 12 45 10 45 -6z m-480 -24 c0 -2 -7
-7 -16 -10 -8 -3 -12 -2 -9 4 6 10 25 14 25 6z m427 -2 c-3 -3 -12 -4 -19 -1
-8 3 -5 6 6 6 11 1 17 -2 13 -5z m-50 -10 c-3 -3 -12 -4 -19 -1 -8 3 -5 6 6 6
11 1 17 -2 13 -5z m-480 -34 c-14 -11 -31 -20 -39 -20 -7 0 1 9 17 19 40 26
54 26 22 1z m80 4 c-3 -3 -12 -4 -19 -1 -8 3 -5 6 6 6 11 1 17 -2 13 -5z m-42
-14 c-3 -5 -12 -10 -20 -10 -7 0 -16 -6 -18 -12 -4 -10 -6 -10 -6 0 -1 7 9 17
22 22 29 12 29 12 22 0z m245 -10 c-8 -5 -19 -10 -25 -10 -5 0 -3 5 5 10 8 5
20 10 25 10 6 0 3 -5 -5 -10z m-127 -7 c-7 -2 -21 -2 -30 0 -10 3 -4 5 12 5
17 0 24 -2 18 -5z m172 -3 c-3 -5 -12 -10 -18 -10 -7 0 -6 4 3 10 19 12 23 12
15 0z"/>
<path d="M7317 1586 c-9 -22 2 -26 75 -26 59 0 68 2 68 18 0 16 -9 19 -69 21
-52 2 -70 -2 -74 -13z"/>
</g>
</svg>
